<svg width="51" height="27" viewBox="0 0 51 27" fill="none" xmlns="http://www.w3.org/2000/svg">
<path d="M3.51203 8.96C4.9082 8.96 6.04003 10.0918 6.04003 11.488V23.424C6.04003 24.8202 4.9082 25.952 3.51203 25.952C2.11585 25.952 0.984028 24.8202 0.984028 23.424V11.488C0.984028 10.0918 2.11585 8.96 3.51203 8.96ZM3.48003 0C4.3547 0 5.06936 0.277334 5.62403 0.832001C6.20003 1.36533 6.48803 2.048 6.48803 2.88C6.48803 3.712 6.20003 4.40533 5.62403 4.96C5.06936 5.49333 4.3547 5.76 3.48003 5.76C2.60536 5.76 1.8907 5.49333 1.33603 4.96C0.781362 4.40533 0.504028 3.712 0.504028 2.88C0.504028 2.048 0.781362 1.36533 1.33603 0.832001C1.8907 0.277334 2.60536 0 3.48003 0Z" fill="#095953"/>
<path d="M24.7673 8.416C26.2393 8.416 27.3913 8.864 28.2233 9.76C29.0553 10.656 29.4713 11.9147 29.4713 13.536V23.424C29.4713 24.8202 28.3395 25.952 26.9433 25.952C25.5471 25.952 24.4153 24.8202 24.4153 23.424V14.4C24.4153 13.5467 24.2766 12.96 23.9993 12.64C23.7433 12.2987 23.3486 12.128 22.8153 12.128C21.7913 12.128 20.8099 12.864 19.8713 14.336V23.424C19.8713 24.8202 18.7395 25.952 17.3433 25.952C15.9471 25.952 14.8153 24.8202 14.8153 23.424V11.3593C14.8153 10.0342 15.8895 8.96 17.2146 8.96C18.3805 8.96 19.3776 9.79812 19.5782 10.9466L19.5833 10.976C20.3086 10.1227 21.0873 9.48267 21.9193 9.056C22.7726 8.62933 23.7219 8.416 24.7673 8.416Z" fill="#095953"/>
<path d="M45.444 8.416C46.6174 8.416 47.6734 8.58667 48.612 8.928C49.0267 9.07879 49.431 9.26497 49.8248 9.48654C50.6921 9.97443 50.8174 11.1189 50.2342 11.9251C49.6078 12.791 48.403 12.9179 47.3961 12.5598C46.8864 12.3786 46.3744 12.288 45.86 12.288C44.7294 12.288 43.876 12.704 43.3 13.536C42.724 14.368 42.436 15.712 42.436 17.568C42.436 19.36 42.724 20.6293 43.3 21.376C43.876 22.1227 44.708 22.496 45.796 22.496C46.372 22.496 46.8947 22.4107 47.364 22.24C48.3601 21.8325 49.5423 22.029 50.1619 22.909C50.7832 23.7914 50.6197 25.0326 49.659 25.5245C48.394 26.1722 47.021 26.496 45.54 26.496C43.812 26.496 42.3187 26.1333 41.06 25.408C39.8014 24.6613 38.8307 23.6267 38.148 22.304C37.4654 20.96 37.124 19.392 37.124 17.6C37.124 15.808 37.4654 14.2187 38.148 12.832C38.8307 11.4453 39.8014 10.368 41.06 9.6C42.3187 8.81067 43.78 8.416 45.444 8.416Z" fill="#095953"/>
</svg>


