<svg width="72" height="80" viewBox="0 0 72 80" fill="none" xmlns="http://www.w3.org/2000/svg">
<path d="M70.9048 50.382L64.9691 38.5103L64.9692 32.4883C64.9697 14.5456 50.4244 0 32.4817 0H32.4795C24.0466 0 16.1175 3.28438 10.1542 9.24734C4.19031 15.2111 0.906094 23.1405 0.90625 31.5745V31.6958C0.906563 41.1691 4.87937 50.1559 11.8441 56.5247V77.6562C11.8441 78.9506 12.8934 80 14.1878 80H45.4378C46.7322 80 47.7816 78.9506 47.7816 77.6562V70.3125H54.8128C58.6961 70.3125 61.8441 67.1645 61.8441 63.2812V54.6884H68.2433C69.8867 54.6884 71.2191 53.3561 71.2191 51.7127C71.2191 51.2508 71.1116 50.7952 70.9048 50.382Z" fill="#D3766A" fill-opacity="0.81"/>
<path d="M70.9048 50.3821L64.969 38.5104L64.9692 32.4883C64.9697 14.6419 50.5793 0.158662 32.7695 0.00366211V80.0001H45.4378C46.7322 80.0001 47.7815 78.9507 47.7815 77.6563V70.3126H54.8128C58.6961 70.3126 61.844 67.1646 61.844 63.2813V54.6885H68.2432C69.8867 54.6885 71.219 53.3562 71.219 51.7127C71.219 51.2508 71.1115 50.7952 70.9048 50.3821Z" fill="#D3766A"/>
<path d="M52.5231 33.9108L50.6012 32.8011C50.6923 32.0713 50.7383 31.3438 50.7383 30.625C50.7383 29.9062 50.6923 29.1787 50.6012 28.4489L52.5231 27.3392C53.0614 27.0284 53.4542 26.5166 53.6151 25.9161C53.7759 25.3156 53.6917 24.6759 53.3809 24.1377L48.6934 16.0186C48.3826 15.4803 47.8706 15.0875 47.2703 14.9266C46.6708 14.7658 46.0303 14.8498 45.4919 15.1608L43.5617 16.275C42.3917 15.3878 41.1344 14.6564 39.8008 14.0875V11.875C39.8008 10.5806 38.7514 9.53125 37.457 9.53125H28.082C26.7876 9.53125 25.7383 10.5806 25.7383 11.875V14.0875C24.4047 14.6564 23.1473 15.3878 21.9773 16.275L20.0472 15.1608C19.5086 14.8498 18.8684 14.7658 18.2687 14.9266C17.6683 15.0873 17.1564 15.4802 16.8456 16.0186L12.1581 24.1377C11.8473 24.6759 11.7631 25.3158 11.9239 25.9161C12.0848 26.5166 12.4776 27.0284 13.0159 27.3392L14.9378 28.4489C14.8467 29.1787 14.8008 29.9062 14.8008 30.625C14.8008 31.3438 14.8467 32.0713 14.9378 32.8011L13.0159 33.9108C12.4776 34.2216 12.0848 34.7334 11.9239 35.3339C11.7631 35.9344 11.8473 36.5741 12.1581 37.1123L16.8456 45.2314C17.1564 45.7697 17.6684 46.1625 18.2687 46.3234C18.8694 46.4844 19.5089 46.4002 20.0472 46.0892L21.9773 44.9748C23.1476 45.8622 24.4047 46.5934 25.7383 47.1623V49.375C25.7383 50.6694 26.7876 51.7188 28.082 51.7188H37.457C38.7514 51.7188 39.8008 50.6694 39.8008 49.375V47.1623C41.1344 46.5934 42.3914 45.8622 43.5617 44.9748L45.4919 46.0892C46.03 46.4 46.6703 46.4842 47.2703 46.3234C47.8708 46.1627 48.3826 45.7698 48.6934 45.2314L53.3809 37.1123C53.6917 36.5741 53.7759 35.9342 53.6151 35.3339C53.4542 34.7334 53.0615 34.2216 52.5231 33.9108ZM32.7695 36.875C29.3176 36.875 26.5195 34.0767 26.5195 30.625C26.5195 27.1731 29.3176 24.375 32.7695 24.375C36.2214 24.375 39.0195 27.1731 39.0195 30.625C39.0195 34.0767 36.2214 36.875 32.7695 36.875Z" fill="#438A84"/>
<path d="M53.6151 25.9161C53.7759 25.3156 53.6917 24.6759 53.3809 24.1377L48.6934 16.0186C48.3826 15.4803 47.8706 15.0875 47.2703 14.9266C46.6707 14.7658 46.0303 14.8498 45.4918 15.1608L43.5617 16.275C42.3917 15.3878 41.1343 14.6564 39.8008 14.0875V11.875C39.8008 10.5806 38.7514 9.53125 37.457 9.53125H32.7695V24.375C36.2214 24.375 39.0195 27.1731 39.0195 30.625C39.0195 34.0767 36.2214 36.875 32.7695 36.875V51.7188H37.457C38.7514 51.7188 39.8008 50.6694 39.8008 49.375V47.1623C41.1343 46.5934 42.3914 45.8622 43.5617 44.9748L45.4918 46.0892C46.03 46.4 46.6703 46.4842 47.2703 46.3234C47.8707 46.1627 48.3826 45.7698 48.6934 45.2314L53.3809 37.1123C53.6917 36.5741 53.7759 35.9342 53.6151 35.3339C53.4542 34.7334 53.0614 34.2216 52.5231 33.9108L50.6012 32.8011C50.6923 32.0713 50.7382 31.3438 50.7382 30.625C50.7382 29.9062 50.6923 29.1787 50.6012 28.4489L52.5231 27.3392C53.0615 27.0284 53.4542 26.5166 53.6151 25.9161Z" fill="#095953"/>
<path d="M32.7695 39.2188C28.0309 39.2188 24.1758 35.3636 24.1758 30.625C24.1758 25.8864 28.0309 22.0312 32.7695 22.0312C37.5081 22.0312 41.3633 25.8864 41.3633 30.625C41.3633 35.3636 37.5083 39.2188 32.7695 39.2188ZM32.7695 26.7188C30.6156 26.7188 28.8633 28.4711 28.8633 30.625C28.8633 32.7789 30.6156 34.5312 32.7695 34.5312C34.9234 34.5312 36.6758 32.7789 36.6758 30.625C36.6758 28.4711 34.9236 26.7188 32.7695 26.7188Z" fill="#FFF5F5"/>
<path d="M36.6758 30.625C36.6758 32.7789 34.9234 34.5312 32.7695 34.5312V39.2188C37.5081 39.2188 41.3633 35.3636 41.3633 30.625C41.3633 25.8864 37.5081 22.0312 32.7695 22.0312V26.7188C34.9236 26.7188 36.6758 28.4711 36.6758 30.625Z" fill="#438A84"/>
</svg>
