<svg width="80" height="80" viewBox="0 0 80 80" fill="none" xmlns="http://www.w3.org/2000/svg">
<path d="M6.25 80H1.25C0.559687 80 0 79.4403 0 78.75V73.75C0 73.0597 0.559687 72.5 1.25 72.5H6.25C6.94031 72.5 7.5 73.0597 7.5 73.75V78.75C7.5 79.4403 6.94031 80 6.25 80ZM2.5 77.5H5V75H2.5V77.5Z" fill="#438A84"/>
<path d="M78.75 80H73.75C73.0597 80 72.5 79.4403 72.5 78.75V73.75C72.5 73.0597 73.0597 72.5 73.75 72.5H78.75C79.4403 72.5 80 73.0597 80 73.75V78.75C80 79.4403 79.4403 80 78.75 80ZM75 77.5H77.5V75H75V77.5Z" fill="#438A84"/>
<path d="M73.75 75H51.1727C60.0748 70.7953 66.25 61.7309 66.25 51.25C66.25 50.5597 65.6903 50 65 50C64.3097 50 63.75 50.5597 63.75 51.25C63.75 64.3458 53.0958 75 40 75C26.9042 75 16.25 64.3458 16.25 51.25C16.25 50.5597 15.6903 50 15 50C14.3097 50 13.75 50.5597 13.75 51.25C13.75 61.7309 19.9252 70.7953 28.8273 75H6.25C5.55969 75 5 75.5597 5 76.25C5 76.9403 5.55969 77.5 6.25 77.5H73.75C74.4403 77.5 75 76.9403 75 76.25C75 75.5597 74.4403 75 73.75 75Z" fill="#095953"/>
<path d="M17.5 52.5H12.5C11.8097 52.5 11.25 51.9403 11.25 51.25V46.25C11.25 45.5597 11.8097 45 12.5 45H17.5C18.1903 45 18.75 45.5597 18.75 46.25V51.25C18.75 51.9403 18.1903 52.5 17.5 52.5ZM13.75 50H16.25V47.5H13.75V50Z" fill="#438A84"/>
<path d="M67.5 52.5H62.5C61.8097 52.5 61.25 51.9403 61.25 51.25V46.25C61.25 45.5597 61.8097 45 62.5 45H67.5C68.1903 45 68.75 45.5597 68.75 46.25V51.25C68.75 51.9403 68.1903 52.5 67.5 52.5ZM63.75 50H66.25V47.5H63.75V50Z" fill="#438A84"/>
<path d="M42.5 72.5H37.5C36.8097 72.5 36.25 73.0597 36.25 73.75V78.75C36.25 79.4403 36.8097 80 37.5 80H42.5C43.1903 80 43.75 79.4403 43.75 78.75V73.75C43.75 73.0597 43.1903 72.5 42.5 72.5Z" fill="#438A84"/>
<path d="M51.25 0H28.75V16.25C28.75 16.9403 29.3097 17.5 30 17.5H50C50.6903 17.5 51.25 16.9403 51.25 16.25V0Z" fill="#5D908D"/>
<path d="M33.75 16.25V0H28.75V16.25C28.75 16.9403 29.3097 17.5 30 17.5H35C34.3097 17.5 33.75 16.9403 33.75 16.25Z" fill="#7EA6A3"/>
<path d="M58.686 43.3547L51.186 20.8547C51.0158 20.3442 50.5382 19.9998 50 19.9998H30C29.4621 19.9998 28.9842 20.344 28.8141 20.8545L21.3141 43.3545C21.195 43.7115 21.2433 44.1033 21.4455 44.4209L37.5977 69.8031C37.9333 70.3306 38.75 70.0928 38.75 69.4675V43.4117C37.9672 42.9572 37.4508 42.0922 37.5038 41.1122C37.5722 39.8481 38.6144 38.8129 39.8788 38.7528C41.3122 38.6848 42.5 39.8314 42.5 41.25C42.5 42.1729 41.996 42.9786 41.25 43.4117V69.4676C41.25 70.0929 42.0666 70.3308 42.4024 69.8033L58.5546 44.4212C58.7567 44.1036 58.805 43.7117 58.686 43.3547Z" fill="#A8A5AC"/>
<path d="M26.4455 44.4211C26.2433 44.1036 26.195 43.7117 26.3141 43.3547L33.8141 20.8547C33.9842 20.3442 34.4619 20 34.9998 20H29.9998C29.4617 20 28.9841 20.3442 28.8139 20.8547L21.3139 43.3547C21.1948 43.7117 21.2431 44.1034 21.4453 44.4211L37.5977 69.8031C37.9333 70.3306 38.75 70.0928 38.75 69.4675V63.7567L26.4455 44.4211Z" fill="#C9D8D6"/>
<path d="M52.5 15H27.5C26.8097 15 26.25 15.5597 26.25 16.25V21.25C26.25 21.9403 26.8097 22.5 27.5 22.5H52.5C53.1903 22.5 53.75 21.9403 53.75 21.25V16.25C53.75 15.5597 53.1903 15 52.5 15Z" fill="#0B423E"/>
</svg>
