<svg width="79" height="80" viewBox="0 0 79 80" fill="none" xmlns="http://www.w3.org/2000/svg">
<path d="M34.9938 75.3125H39.6813V80H34.9938V75.3125Z" fill="#FFCC66"/>
<path d="M0.25 40.5687H4.9375V45.2562H0.25V40.5687Z" fill="#FFE666"/>
<path d="M39.6813 65.9375H44.3687V70.625H39.6813V65.9375Z" fill="#FFCC66"/>
<path d="M5.4194 79.4067C11.2674 73.7513 17.4719 79.9997 17.4719 79.9997C33.8405 75.5705 33.2563 58.9857 33.2563 58.9857L27.2602 48.5702L3.50549 76.7444C4.38643 78.4013 5.4194 79.4067 5.4194 79.4067Z" fill="#FFCC66"/>
<path d="M0.367966 62.6603L4.94375 65.6321C1.1364 70.0253 2.1375 74.1709 3.50547 76.7445L29.4698 50.7801L21.2641 46.9937C21.2642 46.9937 4.79703 46.2917 0.367966 62.6603Z" fill="#FFE666"/>
<path d="M33.2563 58.9858L27.2602 48.5704L17.2911 62.959C26.9461 65.296 33.2563 58.9858 33.2563 58.9858Z" fill="#0B423E"/>
<path d="M17.2911 62.9589L29.4699 50.7801L21.2641 46.9937C21.2642 46.9937 14.9539 53.3039 17.2911 62.9589Z" fill="#095953"/>
<path d="M27.2602 52.9898L33.2563 58.9859L36.7906 55.4515L30.7945 45.0361L27.2602 52.9898Z" fill="#CFCFE6"/>
<path d="M24.7985 43.4593L21.2642 46.9937L27.2602 52.9898L33.0042 47.2457L24.7985 43.4593Z" fill="#ECE6F2"/>
<path d="M40.3248 51.9173L34.3288 41.5018L30.7945 49.4554L36.7906 55.4515L40.3248 51.9173Z" fill="#A3AACC"/>
<path d="M28.3327 39.9252L24.7984 43.4594L30.7945 49.4555L36.5384 43.7116L28.3327 39.9252Z" fill="#CFCFE6"/>
<path d="M61.9375 40.1846C64.3062 49.3605 51.037 62.6296 51.037 62.6296L43.859 55.4516L51.4642 41.9139L61.9375 40.1846Z" fill="#0B423E"/>
<path d="M40.0655 18.3125C30.8895 15.9437 17.6205 29.213 17.6205 29.213L24.7984 36.3909L38.3361 28.7858L40.0655 18.3125Z" fill="#095953"/>
<path d="M78.7422 1.50775L54.1777 21.6529L70.1678 33.2235C79.0988 25.3357 82.4944 12.862 78.7422 1.50775Z" fill="#0B423E"/>
<path d="M47.0264 10.0822L56.3873 23.8625L78.7422 1.5078C67.388 -2.24439 54.9142 1.15123 47.0264 10.0822Z" fill="#095953"/>
<path d="M58.597 21.653L44.2531 31.5775L34.3286 45.9214L43.8589 55.4517L69.6647 33.659C69.8345 33.5156 70.0017 33.3701 70.1676 33.2236L58.597 21.653Z" fill="#ECE6F2"/>
<path d="M47.0264 10.0822C46.8798 10.2481 46.7344 10.4154 46.5909 10.5851L24.7984 36.3909L34.3288 45.9212L58.5972 21.6528L47.0264 10.0822Z" fill="#FFF5F5"/>
<path d="M64.6722 27.728C68.022 24.3781 68.022 18.9277 64.6722 15.5778L56.3873 19.4431L52.522 27.728C55.8719 31.0778 61.3225 31.0778 64.6722 27.728Z" fill="#438A84"/>
<path d="M52.5221 15.5778C49.1722 18.9277 49.1722 24.3781 52.5221 27.728L64.6722 15.5778C61.3224 12.228 55.8719 12.2281 52.5221 15.5778Z" fill="#0B423E"/>
<path d="M61.3577 24.4134C62.8798 22.8912 62.8798 20.4145 61.3577 18.8923L57.4923 20.548L55.8367 24.4133C57.3588 25.9356 59.8355 25.9356 61.3577 24.4134Z" fill="#CFCFE6"/>
<path d="M55.8366 18.8925C54.3144 20.4147 54.3144 22.8913 55.8366 24.4135L61.3577 18.8924C59.8355 17.3703 57.3588 17.3703 55.8366 18.8925Z" fill="#ECE6F2"/>
</svg>
